# xmcd
#
# Track frame offsets:
# 150
# 19647
# 35297
# 48927
# 69480
# 88422
# 104625
# 119702
# 132587
# 146185
# 176142
# 187500
# 210967
# 223640
#
# Disc length: 3618 seconds
#
# Revision: 0
# Processed by: cddbd v1.5PL3 Copyright (c) Steve Scherf et al.
# Submitted via: Audion 3.0.2 (http://www.panic.com/audion/)
#
DISCID=d10e200e
DTITLE=SIX  8 - electricity
DYEAR=1900
DGENRE=
TTITLE0=peace and love
TTITLE1=pawn shops
TTITLE2=so on
TTITLE3=you're welcome
TTITLE4=the worldis burning
TTITLE5=willam burke
TTITLE6=international dance floor
TTITLE7=billy's a dancer
TTITLE8=yellow suede shoes
TTITLE9=why don't you dance ?
TTITLE10=city of concrete
TTITLE11=khali and leïla
TTITLE12=remember startrek
TTITLE13=you're welcome (dub mix)
EXTD=
EXTT0=
EXTT1=
EXTT2=
EXTT3=
EXTT4=
EXTT5=
EXTT6=
EXTT7=
EXTT8=
EXTT9=
EXTT10=
EXTT11=
EXTT12=
EXTT13=
PLAYORDER=
